<?xml version="1.0" ?><!DOCTYPE svg  PUBLIC '-//W3C//DTD SVG 1.1//EN'  'http://www.w3.org/Graphics/SVG/1.1/DTD/svg11.dtd'><svg enable-background="new 0 0 512 512" id="Layer_1" version="1.1" viewBox="0 0 512 512" xml:space="preserve" xmlns="http://www.w3.org/2000/svg" xmlns:xlink="http://www.w3.org/1999/xlink"><g><path d="M259.9,275c-2.8,5.6-5.2,11.5-9.2,16.5c-10.9,13.4-25.1,20.5-42.3,21.5c-19,1.1-34.9-2.7-51-18.1   c-0.2,3.9-0.5,7.5-0.7,11.1c-0.1,2.3-1,3.2-3.4,3.1c-6.2-0.1-12.3-0.2-18.5,0c-2.9,0.1-3.1-1.1-3.1-3.5c0.3-13.3,0.5-26.6,0.7-40   c0-1.8-0.2-3.6-0.4-5.5c0-6.3,0-12.5,0-18.8c0.1-3.2,0.4-6.3,0.4-9.5c0-25.8,0.1-51.6-0.1-77.4c0-3.4,0.8-4.7,4.4-4.5   c4.8,0.3,9.7,0.4,14.5,0c4.9-0.4,6.5,0.8,6.4,6.1c-0.4,16.6-0.1,33.3-0.1,50c0,1.8,0,3.6,0,5.6c2.3,0.2,3-1.6,4.1-2.6   c22.9-22.5,77.9-21.2,95.8,18.4c5.3,11.7,6.2,24,4.8,36.6C261.5,267.7,260.7,271.4,259.9,275z M236.4,253.4   c-0.1-1.9-0.2-4.4-0.4-6.9c-1.3-16.6-13-29.8-29.8-33.9c-16.3-3.9-33.7,2.9-42.1,16.8c-5.8,9.6-7.2,20.2-6,31.2   c2.9,26,26.4,41.4,51.4,33.7C226.4,289.1,236.4,274.2,236.4,253.4z" fill="#0465D2"/><path d="M259.9,275c0.8-3.6,1.6-7.3,2.3-10.9c7.6-15.2,21.7-19.6,36.9-22.1c16.7-2.8,33.5-1.9,50.3-1.9   c4.3,0,5.4-1.3,5.1-5.4c-0.9-11.4-6.3-18.6-17.4-21.6c-9.6-2.6-19.4-2.9-29,0.5c-6.1,2.1-10.9,5.8-12.7,12.3   c-0.6,2.1-1.7,2.5-3.5,2.5c-6.7,0-13.3-0.1-20,0c-2.9,0.1-3.4-1.1-2.9-3.6c1.7-8.6,6.3-15.3,13.5-20.2c7.7-5.3,16.5-7.9,25.6-9   c15-1.8,29.8-1.8,44.4,2.9c6.4,2.1,11.6,6.2,17.3,9.5c3.6,5,6.5,10.3,8.7,16c2.4,15.4,0.9,30.9,1.2,46.4   c0.3,11.8,0.1,23.6,0.5,35.5c0.1,2.9-0.9,3.3-3.3,3.2c-5.5-0.1-11-0.1-16.5,0c-2.5,0.1-3.6-0.7-3.6-3.3c0-3.5-0.5-7-0.7-10.4   c-1.9-0.5-2.3,1-3.2,1.9c-10,10.3-22.5,15.2-36.7,15.7c-9,0.3-17.9,0.7-26.8-1.8C270.2,305.7,261.2,295.1,259.9,275z M317.8,297.1   c21.1-0.1,35.3-12.7,36.9-35.3c0.3-3.7-0.4-5.3-4.7-5.1c-10,0.5-20,0.1-29.9,0.4c-7.1,0.2-14.3,1.1-21.1,3.5   c-6.5,2.4-11.3,6.4-12.1,13.8c-0.9,8.1,2.4,14.2,9.2,18.5C301.8,296.3,308.2,297.2,317.8,297.1z" fill="#F4AF05"/><path d="M132.1,241.5c0,6.3,0,12.5,0,18.8c-31.8,0-63.6,0.1-95.5-0.1c-4.5,0-5.2,1.4-4.7,5.4   c1.8,14.9,14.7,28.3,29.6,30.4c8.3,1.2,16.6,1,24.6-2c7-2.7,12.5-7,15.7-13.8c1.1-2.3,2.4-3.1,4.9-3c6.2,0.2,12.3,0.3,18.5,0   c3.6-0.2,3.7,1.2,2.8,4c-3.7,12.4-12.1,20.7-23.6,25.6c-21.1,8.9-42.9,9.1-64.4,1.7c-17.7-6.1-28.5-19-32.5-37.4   c-3.1-14.2-2.4-28.2,2.6-41.8c6.4-17.3,19.5-27.5,37-31.9c14.2-3.6,28.6-3.9,43-0.6c21.9,5,35.5,18.5,40.6,40.4   C131.3,238.6,131.7,240,132.1,241.5z M69.1,243.7c9.1,0,18.3,0,27.4,0c10.7,0,11.3-0.8,7.7-11c-4.8-13.8-15.4-19.9-29.1-21.2   c-19.6-1.9-37.6,5.8-42.6,27.8c-0.9,3.8,0.1,4.6,3.7,4.5C47.2,243.6,58.2,243.7,69.1,243.7z" fill="#E4343A"/><path d="M378.6,224.1c-2.2-5.7-5.1-11.1-8.7-16c0-3.3-3-5.4-3.5-9.2c9.3,0,18.4,0,27.4,0c2.4,0,2.5,2.4,3.3,3.9   c12.9,25.7,25.8,51.4,38.7,77.1c0.7,1.3,1.4,2.6,2.5,4.8c4.4-8.8,8.5-17,12.6-25.2c9.5-19,19-38.1,28.4-57.2   c1.3-2.6,2.6-3.7,5.6-3.6c7.3,0.2,14.6,0.1,21.7,0.1c0.7,1.7-0.1,2.7-0.6,3.7c-24.7,48.5-49.4,96.9-73.9,145.4   c-1.4,2.8-3,3.9-6.1,3.8c-7.6-0.2-15.3-0.1-23.2-0.1c-0.3-2.2,1-3.6,1.8-5.1c6-11.5,12.1-23,18.1-34.4c1-1.8,1.5-3.3,0.3-5.5   c-14.2-26.5-28.2-53.1-42.4-79.7C380.1,225.8,379.3,225,378.6,224.1z" fill="#87B819"/></g></svg>